<?xml version="1.0" encoding="utf-8"?>
<!-- Generator: Adobe Illustrator 26.0.1, SVG Export Plug-In . SVG Version: 6.00 Build 0)  -->
<svg version="1.1" id="Layer_1" xmlns="http://www.w3.org/2000/svg" xmlns:xlink="http://www.w3.org/1999/xlink" x="0px" y="0px"
	 viewBox="0 0 512 512" style="enable-background:new 0 0 512 512;" xml:space="preserve">
<style type="text/css">
	.st0{display:none;fill:#FFFFFF;}
	.st1{fill:#FFFFFF;}
</style>
<path class="st0" d="M251.9,362.8l1.7,1.7c4.9,4.9,4.9,12.8,0,17.7c-2.4,2.4-5.6,3.7-8.8,3.7c-3.2,0-6.4-1.2-8.8-3.7l-1.7-1.7
	c-4.9-4.9-4.9-12.8,0-17.7C239.1,357.9,247.1,357.9,251.9,362.8L251.9,362.8z M175.8,207.2v-67.7c0-25.6,20.8-46.3,46.3-46.3h67.7
	c25.6,0,46.3,20.8,46.3,46.3v67.7c0,25.6-20.8,46.3-46.3,46.3h-67.7C196.6,253.5,175.8,232.7,175.8,207.2z M200.9,207.2
	c0,11.8,9.6,21.3,21.3,21.3h67.7c11.8,0,21.3-9.6,21.3-21.3v-67.7c0-11.8-9.6-21.3-21.3-21.3h-67.7c-11.8,0-21.3,9.6-21.3,21.3
	V207.2z M273.7,359.6c2.4,2.4,5.6,3.7,8.8,3.7c3.2,0,6.4-1.2,8.8-3.7c4.9-4.9,4.9-12.8,0-17.7l-1.7-1.7c-4.9-4.9-12.8-4.9-17.7,0
	c-4.9,4.9-4.9,12.8,0,17.7L273.7,359.6z M410.1,184.1c-4.9,4.9-4.9,12.8,0,17.7l1.7,1.7c2.4,2.4,5.6,3.7,8.8,3.7
	c3.2,0,6.4-1.2,8.8-3.7c4.9-4.9,4.9-12.8,0-17.7l-1.7-1.7C422.9,179.2,415,179.2,410.1,184.1z M449.5,180.8c2.4,2.4,5.6,3.7,8.8,3.7
	s6.4-1.2,8.8-3.7c4.9-4.9,4.9-12.8,0-17.7l-1.7-1.7c-4.9-4.9-12.8-4.9-17.7,0c-4.9,4.9-4.9,12.8,0,17.7L449.5,180.8L449.5,180.8z
	 M351.7,173.3c0-44.2,36-80.2,80.2-80.2s80.2,36,80.2,80.2s-36,80.2-80.2,80.2S351.7,217.5,351.7,173.3L351.7,173.3z M376.7,173.3
	c0,30.4,24.7,55.1,55.1,55.1s55.1-24.7,55.1-55.1s-24.7-55.1-55.1-55.1S376.7,142.9,376.7,173.3z M415.1,165.2
	c3.2,0,6.4-1.2,8.8-3.7l1.7-1.7c4.9-4.9,4.9-12.8,0-17.7c-4.9-4.9-12.8-4.9-17.7,0l-1.7,1.7c-4.9,4.9-4.9,12.8,0,17.7
	C408.7,164,411.9,165.2,415.1,165.2L415.1,165.2z M220.3,173.3c0-19.7,16-35.7,35.7-35.7c19.7,0,35.7,16,35.7,35.7
	c0,19.7-16,35.7-35.7,35.7C236.3,209.1,220.3,193,220.3,173.3z M245.3,173.3c0,5.9,4.8,10.7,10.7,10.7c5.9,0,10.7-4.8,10.7-10.7
	c0-5.9-4.8-10.7-10.7-10.7C250.1,162.6,245.3,167.4,245.3,173.3z M103.5,253.5c0.2,0,0.4,0,0.7,0c6.6,0,12.1-5.2,12.5-11.9
	l11.9-228.5c0.4-6.9-4.9-12.8-11.8-13.1c-6.9-0.4-12.8,4.9-13.1,11.8L91.7,240.3C91.3,247.2,96.6,253.1,103.5,253.5z M438.6,487
	h-60.9c-6.9,0-12.5,5.6-12.5,12.5s5.6,12.5,12.5,12.5h60.9c6.9,0,12.5-5.6,12.5-12.5S445.5,487,438.6,487z M499.5,451.4h-487
	C5.6,451.4,0,457,0,463.9s5.6,12.5,12.5,12.5h487c6.9,0,12.5-5.6,12.5-12.5S506.4,451.4,499.5,451.4z M512,318.2v67.7
	c0,25.6-20.8,46.3-46.3,46.3H398c-25.6,0-46.3-20.8-46.3-46.3v-67.7c0-25.6,20.8-46.3,46.3-46.3h67.7
	C491.2,271.9,512,292.7,512,318.2L512,318.2z M487,318.2c0-11.8-9.6-21.3-21.3-21.3H398c-11.8,0-21.3,9.6-21.3,21.3v67.7
	c0,11.8,9.6,21.3,21.3,21.3h67.7c11.8,0,21.3-9.6,21.3-21.3V318.2L487,318.2z M239.3,344c3.2,0,6.4-1.2,8.8-3.7l1.7-1.7
	c4.9-4.9,4.9-12.8,0-17.7c-4.9-4.9-12.8-4.9-17.7,0l-1.7,1.7c-4.9,4.9-4.9,12.8,0,17.7C232.9,342.8,236.1,344,239.3,344z
	 M467.6,352.1c0,19.7-16,35.7-35.7,35.7c-19.7,0-35.7-16-35.7-35.7c0-19.7,16-35.7,35.7-35.7C451.5,316.3,467.6,332.4,467.6,352.1z
	 M442.5,352.1c0-5.9-4.8-10.7-10.7-10.7c-5.9,0-10.7,4.8-10.7,10.7s4.8,10.7,10.7,10.7C437.7,362.8,442.5,358,442.5,352.1z
	 M134.3,487H73.4c-6.9,0-12.5,5.6-12.5,12.5S66.5,512,73.4,512h60.9c6.9,0,12.5-5.6,12.5-12.5S141.2,487,134.3,487z M43.7,241.6
	c0.3,6.7,5.9,11.9,12.5,11.9c0.2,0,0.4,0,0.7,0c6.9-0.4,12.2-6.2,11.8-13.1L56.8,11.9C56.4,5,50.5-0.4,43.6,0
	c-6.9,0.4-12.2,6.2-11.8,13.1L43.7,241.6L43.7,241.6z M175.8,352.1c0-44.2,36-80.2,80.2-80.2c44.2,0,80.2,36,80.2,80.2
	s-36,80.2-80.2,80.2C211.8,432.2,175.8,396.3,175.8,352.1L175.8,352.1z M200.9,352.1c0,30.4,24.7,55.1,55.1,55.1
	c30.4,0,55.1-24.7,55.1-55.1s-24.7-55.1-55.1-55.1C225.6,296.9,200.9,321.7,200.9,352.1z M0,385.9v-67.7c0-25.6,20.8-46.3,46.3-46.3
	H114c25.6,0,46.3,20.8,46.3,46.3v67.7c0,25.6-20.8,46.3-46.3,46.3H46.3C20.8,432.2,0,411.4,0,385.9z M25,385.9
	c0,11.8,9.6,21.3,21.3,21.3H114c11.8,0,21.3-9.6,21.3-21.3v-67.7c0-11.8-9.6-21.3-21.3-21.3H46.3c-11.8,0-21.3,9.6-21.3,21.3
	L25,385.9L25,385.9z M44.4,352.1c0-19.7,16-35.7,35.7-35.7s35.7,16,35.7,35.7c0,19.7-16,35.7-35.7,35.7S44.4,371.8,44.4,352.1z
	 M69.4,352.1c0,5.9,4.8,10.7,10.7,10.7s10.7-4.8,10.7-10.7c0-5.9-4.8-10.7-10.7-10.7S69.4,346.2,69.4,352.1z"/>
<g>
	<path class="st1" d="M405.2,248.8c24.8,22.2,40.6,53.8,40.8,89l0,6.8c0.3,66.9-55.6,121.4-124.6,121.4h-3.1l0.2,35.8h-80.4
		l-0.2-35.8H205l0.2,35.8h-80.4l-0.2-35.8h-18.8H66L65.6,388h39.9l-0.5-93.6l-0.4-78l-0.4-84.3H64.3l-0.4-78h39.9h18.8l-0.2-43.8
		h80.4l0.2,43.8h32.9l-0.2-43.8h80.4l0.2,44.2c63.1,3.7,113.5,54.5,113.9,116.6l0,6.4C430.3,204.3,420.9,229,405.2,248.8z
		 M365.6,344.6l0-6.8c-0.1-24-20.3-43.4-45-43.4h-10.4H185.4l0.5,93.6h17.1H321C345.7,388,365.7,368.5,365.6,344.6 M184.6,132.1
		l0.4,84.3h124.8c22.2,0,40.1-17.5,40-39l0-6.4c-0.1-21.5-18.2-39-40.4-39H201.7H184.6"/>
</g>
</svg>
