<?xml version="1.0" encoding="utf-8"?>
<!-- Generator: Adobe Illustrator 26.0.1, SVG Export Plug-In . SVG Version: 6.00 Build 0)  -->
<svg version="1.1" id="Layer_1" xmlns="http://www.w3.org/2000/svg" xmlns:xlink="http://www.w3.org/1999/xlink" x="0px" y="0px"
	 viewBox="0 0 512 512" style="enable-background:new 0 0 512 512;" xml:space="preserve">
<style type="text/css">
	.st0{display:none;fill:#FFFFFF;}
	.st1{fill:#A7A9AC;}
	.st2{fill:#32BA46;}
	.st3{fill:none;}
	.st4{fill:#FFFFFF;}
</style>
<path class="st0" d="M251.9,362.8l1.7,1.7c4.9,4.9,4.9,12.8,0,17.7c-2.4,2.4-5.6,3.7-8.8,3.7c-3.2,0-6.4-1.2-8.8-3.7l-1.7-1.7
	c-4.9-4.9-4.9-12.8,0-17.7C239.1,357.9,247.1,357.9,251.9,362.8L251.9,362.8z M175.8,207.2v-67.7c0-25.6,20.8-46.3,46.3-46.3h67.7
	c25.6,0,46.3,20.8,46.3,46.3v67.7c0,25.6-20.8,46.3-46.3,46.3h-67.7C196.6,253.5,175.8,232.7,175.8,207.2z M200.9,207.2
	c0,11.8,9.6,21.3,21.3,21.3h67.7c11.8,0,21.3-9.6,21.3-21.3v-67.7c0-11.8-9.6-21.3-21.3-21.3h-67.7c-11.8,0-21.3,9.6-21.3,21.3
	V207.2z M273.7,359.6c2.4,2.4,5.6,3.7,8.8,3.7c3.2,0,6.4-1.2,8.8-3.7c4.9-4.9,4.9-12.8,0-17.7l-1.7-1.7c-4.9-4.9-12.8-4.9-17.7,0
	c-4.9,4.9-4.9,12.8,0,17.7L273.7,359.6z M410.1,184.1c-4.9,4.9-4.9,12.8,0,17.7l1.7,1.7c2.4,2.4,5.6,3.7,8.8,3.7
	c3.2,0,6.4-1.2,8.8-3.7c4.9-4.9,4.9-12.8,0-17.7l-1.7-1.7C422.9,179.2,415,179.2,410.1,184.1z M449.5,180.8c2.4,2.4,5.6,3.7,8.8,3.7
	s6.4-1.2,8.8-3.7c4.9-4.9,4.9-12.8,0-17.7l-1.7-1.7c-4.9-4.9-12.8-4.9-17.7,0c-4.9,4.9-4.9,12.8,0,17.7L449.5,180.8L449.5,180.8z
	 M351.7,173.3c0-44.2,36-80.2,80.2-80.2s80.2,36,80.2,80.2s-36,80.2-80.2,80.2S351.7,217.5,351.7,173.3L351.7,173.3z M376.7,173.3
	c0,30.4,24.7,55.1,55.1,55.1s55.1-24.7,55.1-55.1s-24.7-55.1-55.1-55.1S376.7,142.9,376.7,173.3z M415.1,165.2
	c3.2,0,6.4-1.2,8.8-3.7l1.7-1.7c4.9-4.9,4.9-12.8,0-17.7c-4.9-4.9-12.8-4.9-17.7,0l-1.7,1.7c-4.9,4.9-4.9,12.8,0,17.7
	C408.7,164,411.9,165.2,415.1,165.2L415.1,165.2z M220.3,173.3c0-19.7,16-35.7,35.7-35.7c19.7,0,35.7,16,35.7,35.7
	c0,19.7-16,35.7-35.7,35.7C236.3,209.1,220.3,193,220.3,173.3z M245.3,173.3c0,5.9,4.8,10.7,10.7,10.7c5.9,0,10.7-4.8,10.7-10.7
	c0-5.9-4.8-10.7-10.7-10.7C250.1,162.6,245.3,167.4,245.3,173.3z M103.5,253.5c0.2,0,0.4,0,0.7,0c6.6,0,12.1-5.2,12.5-11.9
	l11.9-228.5c0.4-6.9-4.9-12.8-11.8-13.1c-6.9-0.4-12.8,4.9-13.1,11.8L91.7,240.3C91.3,247.2,96.6,253.1,103.5,253.5z M438.6,487
	h-60.9c-6.9,0-12.5,5.6-12.5,12.5s5.6,12.5,12.5,12.5h60.9c6.9,0,12.5-5.6,12.5-12.5S445.5,487,438.6,487z M499.5,451.4h-487
	C5.6,451.4,0,457,0,463.9s5.6,12.5,12.5,12.5h487c6.9,0,12.5-5.6,12.5-12.5S506.4,451.4,499.5,451.4z M512,318.2v67.7
	c0,25.6-20.8,46.3-46.3,46.3H398c-25.6,0-46.3-20.8-46.3-46.3v-67.7c0-25.6,20.8-46.3,46.3-46.3h67.7
	C491.2,271.9,512,292.7,512,318.2L512,318.2z M487,318.2c0-11.8-9.6-21.3-21.3-21.3H398c-11.8,0-21.3,9.6-21.3,21.3v67.7
	c0,11.8,9.6,21.3,21.3,21.3h67.7c11.8,0,21.3-9.6,21.3-21.3V318.2L487,318.2z M239.3,344c3.2,0,6.4-1.2,8.8-3.7l1.7-1.7
	c4.9-4.9,4.9-12.8,0-17.7c-4.9-4.9-12.8-4.9-17.7,0l-1.7,1.7c-4.9,4.9-4.9,12.8,0,17.7C232.9,342.8,236.1,344,239.3,344z
	 M467.6,352.1c0,19.7-16,35.7-35.7,35.7c-19.7,0-35.7-16-35.7-35.7c0-19.7,16-35.7,35.7-35.7C451.5,316.3,467.6,332.4,467.6,352.1z
	 M442.5,352.1c0-5.9-4.8-10.7-10.7-10.7c-5.9,0-10.7,4.8-10.7,10.7s4.8,10.7,10.7,10.7C437.7,362.8,442.5,358,442.5,352.1z
	 M134.3,487H73.4c-6.9,0-12.5,5.6-12.5,12.5S66.5,512,73.4,512h60.9c6.9,0,12.5-5.6,12.5-12.5S141.2,487,134.3,487z M43.7,241.6
	c0.3,6.7,5.9,11.9,12.5,11.9c0.2,0,0.4,0,0.7,0c6.9-0.4,12.2-6.2,11.8-13.1L56.8,11.9C56.4,5,50.5-0.4,43.6,0
	c-6.9,0.4-12.2,6.2-11.8,13.1L43.7,241.6L43.7,241.6z M175.8,352.1c0-44.2,36-80.2,80.2-80.2c44.2,0,80.2,36,80.2,80.2
	s-36,80.2-80.2,80.2C211.8,432.2,175.8,396.3,175.8,352.1L175.8,352.1z M200.9,352.1c0,30.4,24.7,55.1,55.1,55.1
	c30.4,0,55.1-24.7,55.1-55.1s-24.7-55.1-55.1-55.1C225.6,296.9,200.9,321.7,200.9,352.1z M0,385.9v-67.7c0-25.6,20.8-46.3,46.3-46.3
	H114c25.6,0,46.3,20.8,46.3,46.3v67.7c0,25.6-20.8,46.3-46.3,46.3H46.3C20.8,432.2,0,411.4,0,385.9z M25,385.9
	c0,11.8,9.6,21.3,21.3,21.3H114c11.8,0,21.3-9.6,21.3-21.3v-67.7c0-11.8-9.6-21.3-21.3-21.3H46.3c-11.8,0-21.3,9.6-21.3,21.3
	L25,385.9L25,385.9z M44.4,352.1c0-19.7,16-35.7,35.7-35.7s35.7,16,35.7,35.7c0,19.7-16,35.7-35.7,35.7S44.4,371.8,44.4,352.1z
	 M69.4,352.1c0,5.9,4.8,10.7,10.7,10.7s10.7-4.8,10.7-10.7c0-5.9-4.8-10.7-10.7-10.7S69.4,346.2,69.4,352.1z"/>
<g>
	<path class="st1" d="M254.5,30.4c61.8,0,119.9,24.1,163.5,67.8c43.7,43.7,67.7,101.8,67.7,163.6s-24.1,119.9-67.7,163.6
		c-43.7,43.7-101.8,67.8-163.5,67.8S134.7,469.1,91,425.4c-43.7-43.7-67.7-101.8-67.7-163.6S47.3,141.9,91,98.2
		C134.7,54.4,192.8,30.4,254.5,30.4 M254.5,26.6c-60.2,0-120.3,23-166.2,68.9c-91.8,91.9-91.8,240.8,0,332.6
		C134.2,474,194.4,497,254.5,497s120.3-23,166.2-68.9c91.8-91.9,91.8-240.8,0-332.6C374.9,49.6,314.7,26.6,254.5,26.6L254.5,26.6z"
		/>
	<path class="st2" d="M426,90.2c-94.7-94.8-248.2-94.8-342.9,0l15,15c86.4-86.5,226.5-86.5,312.9,0c86.4,86.5,86.4,226.6,0,313.1
		l15,15C520.7,338.6,520.7,185,426,90.2z"/>
	<ellipse class="st2" cx="254.5" cy="261.8" rx="205.2" ry="205.4"/>
	<g>
		<g>
			<path class="st3" d="M254.5,132.3c-71.5,0-129.4,58-129.4,129.5c0,30.1,10.3,57.7,27.5,79.6L144,386l42-14.5
				c19.9,12.5,43.3,19.8,68.5,19.8c71.5,0,129.5-58,129.5-129.5C384,190.3,326,132.3,254.5,132.3z"/>
			<path class="st4" d="M254.5,401.7c-24.5,0-48.5-6.5-69.7-18.8l-54.5,18.8l11.2-57.7c-17.5-24.1-26.8-52.4-26.8-82.2
				c0-77.2,62.7-139.9,139.8-139.9c77.1,0,139.8,62.8,139.8,139.9C394.4,339,331.7,401.7,254.5,401.7z M187.3,360.1l4.2,2.6
				c19,11.9,40.8,18.2,63,18.2c65.6,0,119-53.4,119-119.1c0-65.7-53.4-119.1-119-119.1c-65.6,0-119,53.4-119,119.1
				c0,26.7,8.7,52,25.3,73.2l2.9,3.7l-6.1,31.5L187.3,360.1z"/>
		</g>
		<path class="st4" d="M183.9,208c0,0,8.2-14.4,14.9-15.2c6.7-0.8,15.3-0.8,17.6,3.6c2.3,4.4,12.7,29.8,12.7,29.8s1.8,4.4-1,8.6
			c-2.7,4.2-8.9,10.4-8.9,10.4s-3.4,4.4,0,9c3.4,4.6,8.7,13.2,19.7,24.1c10.9,11,32,18.8,32,18.8s3,0.4,4.9-1.5
			c1.9-1.9,12.3-14.9,12.3-14.9s3.3-4.3,8.9-1.8c5.5,2.5,29.5,14.5,29.5,14.5s2.8,1,2.8,5.3c0,4.2-1.7,14.6-5.2,18.1
			c-3.5,3.5-13.7,14.3-29.1,14.3c-15.4,0-52-12.5-71.6-32.1c-19.5-19.6-36.9-39.4-41-57.4C178.3,223.6,178.9,215.5,183.9,208z"/>
	</g>
</g>
</svg>
