<?xml version="1.0" encoding="utf-8"?>
<!-- Generator: Adobe Illustrator 26.0.1, SVG Export Plug-In . SVG Version: 6.00 Build 0)  -->
<svg version="1.1"
	 id="Livello_1" inkscape:version="0.91 r13725" sodipodi:docname="logo-grey-3.svg" xmlns:cc="http://creativecommons.org/ns#" xmlns:dc="http://purl.org/dc/elements/1.1/" xmlns:inkscape="http://www.inkscape.org/namespaces/inkscape" xmlns:rdf="http://www.w3.org/1999/02/22-rdf-syntax-ns#" xmlns:sodipodi="http://sodipodi.sourceforge.net/DTD/sodipodi-0.dtd" xmlns:svg="http://www.w3.org/2000/svg"
	 xmlns="http://www.w3.org/2000/svg" xmlns:xlink="http://www.w3.org/1999/xlink" x="0px" y="0px" viewBox="0 0 499 100"
	 style="enable-background:new 0 0 499 100;" xml:space="preserve">
<style type="text/css">
	.st0{display:none;fill:#727475;}
	.st1{display:none;fill:#727475;fill-opacity:0.9412;}
	.st2{display:none;fill:#A3A3A3;}
	.st3{display:none;}
	.st4{display:inline;}
	.st5{fill:#A3A3A3;}
	.st6{display:inline;fill:#727475;}
</style>
<sodipodi:namedview  bordercolor="#666666" borderopacity="1" gridtolerance="10" guidetolerance="10" id="namedview28" inkscape:current-layer="g3" inkscape:cx="288.21387" inkscape:cy="50" inkscape:pageopacity="0" inkscape:pageshadow="2" inkscape:window-height="679" inkscape:window-maximized="0" inkscape:window-width="1060" inkscape:window-x="439" inkscape:window-y="54" inkscape:zoom="0.74944345" objecttolerance="10" pagecolor="#ffffff" showgrid="false">
	</sodipodi:namedview>
<g id="g3">
	<path id="path5" class="st0" d="M50.1,2.7v8H13.7v31.4h28.8v8H13.7v39.6h-8v-87H50.1z"/>
	<path id="path7" class="st1" d="M66.1,77.6c-8.7-8.6-13-19.1-13-31.3c0-12.2,4.3-22.7,13-31.4c8.6-8.6,19.1-13,31.3-13
		c12.2,0,22.7,4.3,31.4,13c8.6,8.7,13,19.2,13,31.4c0,12.2-4.3,22.7-13,31.3c-8.7,8.7-19.1,13-31.4,13
		C85.2,90.6,74.7,86.3,66.1,77.6z M71.7,20.6c-7.1,7.1-10.7,15.7-10.7,25.7c0,10,3.6,18.6,10.7,25.7c7.1,7.1,15.7,10.7,25.7,10.7
		s18.6-3.6,25.7-10.7c7.1-7.1,10.7-15.7,10.7-25.7c0-10-3.6-18.6-10.7-25.7C116,13.4,107.4,9.9,97.4,9.9
		C87.4,9.9,78.8,13.4,71.7,20.6z"/>
	<path id="path9" class="st0" d="M241.5,89.7v-87h21.4c12,0,22.3,4.3,30.8,12.8c8.5,8.5,12.7,18.7,12.7,30.7
		c0,12-4.2,22.2-12.7,30.7c-8.5,8.5-18.8,12.8-30.8,12.8L241.5,89.7L241.5,89.7z M249.4,81.8h13.5c9.8,0,18.2-3.5,25.1-10.4
		c6.9-6.9,10.4-15.3,10.4-25.1c0-9.8-3.5-18.2-10.4-25.2c-6.9-6.9-15.3-10.4-25.1-10.4h-13.5V81.8z"/>
	<path id="path11" class="st2" d="M321.7,2.7v79h40.4v8h-48.4v-87H321.7z"/>
	<path id="path13" class="st2" d="M430,2.7v87H422V67.9h-34.5l-13.8,21.8h-9.5l55-87C419.3,2.7,430,2.7,430,2.7z M392.5,59.9H422
		V13.3L392.5,59.9z"/>
	<path id="path15" class="st2" d="M440.9,89.7v-87h26.2c6.5,0,12.1,2.3,16.7,6.9c4.6,4.6,7,10.2,7,16.7c0,7.2-2.8,13.2-8.3,18
		c4.1,1.9,7.4,4.8,9.9,8.6c2.5,3.9,3.8,8.2,3.8,12.8c0,6.6-2.3,12.3-7,16.9c-4.7,4.7-10.3,7-16.8,7H440.9z M448.9,42h18.2
		c4.3,0,8-1.5,11-4.6c3.1-3.1,4.6-6.8,4.6-11.1c0-4.3-1.5-8-4.6-11c-3.1-3.1-6.7-4.6-11-4.6h-18.2L448.9,42L448.9,42z M448.9,81.7
		h23.3c4.4,0,8.1-1.6,11.2-4.7c3.1-3.1,4.6-6.9,4.6-11.3c0-4.3-1.5-8-4.6-11.2c-3.1-3.1-6.8-4.6-11.2-4.6h-23.3V81.7z"/>
	<g id="g17" class="st3">
		<g id="g19" class="st4">
			<path id="path21" class="st5" d="M201.7,100c-0.7,0-1.4-0.4-1.7-1.1l-18.6-40.8c-0.4-0.9,0-2,0.9-2.5c0.9-0.4,2,0,2.5,0.9
				l18.6,40.8c0.4,0.9,0,2-0.9,2.5C202.2,99.9,202,100,201.7,100z"/>
			<g id="g23">
				<path id="path25" class="st5" d="M170.9,54.7c-0.7,0-1.4-0.4-1.7-1.1l-7.6-16.7c-0.4-0.9,0-2,0.9-2.5c0.9-0.4,2,0,2.5,0.9
					l7.6,16.7c0.4,0.9,0,2-0.9,2.5C171.5,54.7,171.2,54.7,170.9,54.7z"/>
				<path id="path27" class="st5" d="M179.3,50.9c-0.7,0-1.4-0.4-1.7-1.1L170,33.1c-0.4-0.9,0-2,0.9-2.5c0.9-0.4,2,0,2.5,0.9
					l7.6,16.7c0.4,0.9,0,2-0.9,2.5C179.8,50.9,179.6,50.9,179.3,50.9z"/>
				<path id="path29" class="st5" d="M187.7,47.1c-0.7,0-1.4-0.4-1.7-1.1l-7.6-16.7c-0.4-0.9,0-2,0.9-2.5c0.9-0.4,2,0,2.5,0.9
					l7.6,16.7c0.4,0.9,0,2-0.9,2.5C188.2,47.1,187.9,47.1,187.7,47.1z"/>
			</g>
			<path id="path31" class="st5" d="M179.2,60.1c-1.3,0-2.6-0.2-3.8-0.7c-2.8-1-5-3.1-6.2-5.7c-0.4-0.9,0-2,0.9-2.5
				c0.9-0.4,2,0,2.5,0.9c0.8,1.8,2.2,3.1,4.1,3.8c1.8,0.7,3.8,0.6,5.6-0.2c3.7-1.7,5.3-6,3.7-9.6c-0.4-0.9,0-2,0.9-2.5
				c0.9-0.4,2,0,2.5,0.9c2.5,5.5,0,12-5.5,14.6C182.4,59.7,180.8,60.1,179.2,60.1z"/>
		</g>
		<g id="g33" class="st4">
			<path id="path35" class="st5" d="M184,98.5c-0.3,0-0.5-0.1-0.8-0.2c-0.9-0.4-1.4-1.5-0.9-2.5l18.6-40.8c0.4-0.9,1.5-1.3,2.5-0.9
				c0.9,0.4,1.3,1.5,0.9,2.5l-18.6,40.8C185.4,98.1,184.7,98.5,184,98.5z"/>
			<path id="path37" class="st5" d="M214.7,53.2c-0.3,0-0.5-0.1-0.8-0.2c-0.9-0.4-1.4-1.5-0.9-2.5l4.1-9.1c0.4-0.9,1.5-1.3,2.5-0.9
				c0.9,0.4,1.4,1.5,0.9,2.5l-4.1,9.1C216.1,52.8,215.4,53.2,214.7,53.2z"/>
			<path id="path39" class="st5" d="M198,45.6c-0.3,0-0.5-0.1-0.8-0.2c-0.9-0.4-1.3-1.5-0.9-2.5l4.1-9.1c0.4-0.9,1.5-1.4,2.5-0.9
				c0.9,0.4,1.4,1.5,0.9,2.5l-4.1,9.1C199.4,45.2,198.7,45.6,198,45.6z"/>
			<path id="path41" class="st5" d="M206.4,58.6c-1.5,0-3.1-0.3-4.6-1c-2.7-1.2-4.7-3.4-5.8-6.2c-1-2.8-0.9-5.7,0.3-8.4
				c0.4-0.9,1.5-1.4,2.5-0.9c0.9,0.4,1.4,1.5,0.9,2.5c-0.8,1.8-0.9,3.7-0.2,5.5c0.7,1.8,2.1,3.3,3.8,4.1c3.7,1.7,8,0.1,9.7-3.6
				c0.4-0.9,1.5-1.4,2.5-0.9c0.9,0.4,1.3,1.5,0.9,2.5C214.6,56.2,210.6,58.6,206.4,58.6z"/>
			<path id="path43" class="st5" d="M218.6,44.8c-0.3,0-0.5-0.1-0.8-0.2c-0.9-0.4-1.4-1.5-0.9-2.5c1.7-3.6,0-8-3.7-9.6
				c-3.7-1.7-8-0.1-9.7,3.6c-0.4,0.9-1.5,1.3-2.5,0.9c-0.9-0.4-1.3-1.5-0.9-2.5c2.5-5.5,9.1-7.9,14.6-5.4c5.6,2.5,8,9.1,5.5,14.6
				C220,44.4,219.3,44.8,218.6,44.8z"/>
		</g>
	</g>
	<g id="g45" class="st3">
		<path id="path47" class="st6" d="M160.1,77.6c-8.7-8.6-13-19.1-13-31.3c0-12.2,4.3-22.7,13-31.4c8.6-8.6,19.1-13,31.3-13
			c12.2,0,22.7,4.3,31.4,13c8.6,8.7,13,19.1,13,31.4s-4.3,22.7-13,31.3c-8.7,8.7-19.1,13-31.4,13C179.2,90.6,168.7,86.2,160.1,77.6z
			 M165.7,20.5c-7.1,7.1-10.7,15.7-10.7,25.7c0,10,3.6,18.6,10.7,25.7c7.1,7.1,15.7,10.7,25.7,10.7S210,79,217.1,71.9
			c7.1-7.1,10.7-15.7,10.7-25.7c0-10-3.6-18.6-10.7-25.7c-7.1-7.1-15.7-10.7-25.7-10.7C181.4,9.9,172.8,13.4,165.7,20.5z"/>
	</g>
</g>
<image style="overflow:visible;" width="2726" height="548" xlink:href="189C5A0F.jpg"  transform="matrix(0.1634 0 0 0.1595 25.7161 7.6102)">
</image>
</svg>
